#define 20843_64e6b1fac880c300f37ce6096664a137625278150792d63fa8812f1d602c8568-3_width 48
#define 20843_64e6b1fac880c300f37ce6096664a137625278150792d63fa8812f1d602c8568-3_height 48
static char 20843_64e6b1fac880c300f37ce6096664a137625278150792d63fa8812f1d602c8568-3_bits[] = {
  0xFF, 0xFF, 0x01, 0x80, 0xFF, 0xFF, 0xFF, 0x3F, 0x00, 0x00, 0xFC, 0xFF, 
  0xFF, 0x0F, 0x81, 0x41, 0xF0, 0xFF, 0xFF, 0x03, 0x00, 0x00, 0xC0, 0xFF, 
  0xFF, 0x01, 0x00, 0x00, 0x80, 0xFF, 0xFF, 0x00, 0x00, 0x00, 0x00, 0xFF, 
  0x3F, 0x00, 0x00, 0x00, 0x00, 0xFC, 0x3F, 0x00, 0x00, 0x40, 0x20, 0xFC, 
  0x1F, 0x00, 0x00, 0x00, 0x00, 0xF8, 0x0F, 0x00, 0x40, 0x40, 0x20, 0xF0, 
  0x0F, 0x00, 0x00, 0x00, 0x00, 0xE0, 0x07, 0x00, 0x00, 0x00, 0x00, 0xE0, 
  0x03, 0x00, 0x00, 0x00, 0x00, 0xC0, 0x03, 0x00, 0x00, 0x00, 0x00, 0xC0, 
  0x01, 0x87, 0x03, 0x00, 0x70, 0x80, 0x81, 0x8F, 0x07, 0x00, 0xF8, 0x80, 
  0x84, 0xCF, 0x07, 0x00, 0xF8, 0x40, 0x80, 0x87, 0x07, 0x40, 0xF0, 0x00, 
  0x00, 0x07, 0x01, 0x00, 0x60, 0x10, 0x00, 0x00, 0x00, 0x00, 0x00, 0x00, 
  0x00, 0x00, 0x00, 0x00, 0x00, 0x00, 0x00, 0x80, 0xC3, 0x01, 0x00, 0x30, 
  0x00, 0xC0, 0xC7, 0x03, 0x00, 0x7C, 0x04, 0xC1, 0xE7, 0x03, 0x20, 0x7C, 
  0x04, 0xC0, 0xE3, 0x01, 0x00, 0x78, 0x00, 0x00, 0x83, 0x01, 0x00, 0x30, 
  0x00, 0x00, 0x00, 0x00, 0x00, 0x00, 0x00, 0x00, 0x00, 0x00, 0x00, 0x00, 
  0x00, 0x00, 0x00, 0x00, 0x00, 0x00, 0x00, 0x00, 0x00, 0x00, 0x00, 0x00, 
  0x04, 0x0A, 0x01, 0x10, 0x00, 0x10, 0x00, 0x00, 0x00, 0x00, 0x00, 0x00, 
  0x01, 0x00, 0x00, 0x00, 0x00, 0x80, 0x01, 0x00, 0x00, 0x40, 0x00, 0x80, 
  0x07, 0x02, 0x00, 0x00, 0x00, 0xC0, 0x03, 0x00, 0x00, 0x00, 0x00, 0xF0, 
  0x07, 0x00, 0x00, 0x00, 0x00, 0xF8, 0x07, 0x00, 0x20, 0x80, 0x00, 0xFC, 
  0x0F, 0x00, 0x00, 0x00, 0x00, 0xF8, 0x1F, 0x02, 0x80, 0x00, 0x20, 0xF8, 
  0x3F, 0x00, 0x00, 0x00, 0x00, 0xFC, 0x3F, 0x00, 0x00, 0x00, 0x00, 0xFC, 
  0xFF, 0x00, 0x01, 0x40, 0x00, 0xFF, 0xFF, 0x01, 0x00, 0x00, 0x80, 0xFF, 
  0xFF, 0x03, 0x81, 0x40, 0xC4, 0xFF, 0xFF, 0x0F, 0x00, 0x00, 0xF0, 0xFF, 
  0xFF, 0x3F, 0x00, 0x00, 0xFC, 0xFF, 0xFF, 0xFF, 0x01, 0x80, 0xFF, 0xFF, 
  };
